<svg id="Layer_1" xmlns="http://www.w3.org/2000/svg" viewBox="0 0 1148.3 628"><style>.st0,.st1{fill:none;stroke:#fff;stroke-width:31.3}.st1{stroke-linecap:round}</style><path class="st0" d="M502.9 25.2l621.9 165.9c1.5.4 3 .9 4.5 1.6 1.5.6 2.9 1.4 4.2 2.2 1.3.9 2.6 1.8 3.8 2.8 1.2 1 2.3 2.2 3.3 3.4 1 1.2 2 2.5 2.8 3.9.8 1.4 1.6 2.8 2.2 4.2.6 1.5 1.1 3 1.5 4.5s.7 3.1.8 4.7c.1 1.6.2 3.2.1 4.8-.1 1.6-.3 3.2-.6 4.7-.3 1.6-.8 3.1-1.3 4.6-.6 1.5-1.2 2.9-2 4.3s-1.7 2.7-2.6 3.9c-1 1.2-2.1 2.4-3.2 3.5-1.2 1.1-2.4 2.1-3.7 3s-2.7 1.7-4.1 2.4L735.8 439.1c-4.2 2-8.6 3.9-13 5.5s-8.9 3.1-13.4 4.3c-4.5 1.2-9.1 2.3-13.8 3.1-4.6.8-9.3 1.5-14 1.9-4.7.4-9.4.6-14.1.6-4.7 0-9.4-.2-14.1-.7-4.7-.4-9.3-1.1-14-1.9-4.6-.9-9.2-1.9-13.7-3.2l-604-169.2c-1.5-.4-3-1-4.4-1.6-1.4-.6-2.8-1.4-4.1-2.3-1.3-.9-2.6-1.8-3.7-2.9-1.2-1-2.3-2.2-3.3-3.4-1-1.2-1.9-2.5-2.7-3.8-.8-1.3-1.5-2.7-2.1-4.2s-1.1-2.9-1.5-4.5c-.4-1.5-.6-3.1-.8-4.6-.1-1.6-.2-3.1-.1-4.7s.3-3.1.6-4.7.8-3 1.3-4.5c.6-1.5 1.2-2.9 2-4.3s1.6-2.7 2.6-3.9c1-1.2 2-2.4 3.2-3.5 1.1-1.1 2.4-2.1 3.7-3 1.3-.9 2.6-1.7 4.1-2.4l377-185.4c4.2-2.1 8.5-3.9 12.9-5.6 4.4-1.7 8.8-3.2 13.3-4.4 4.5-1.3 9.1-2.4 13.7-3.2 4.6-.9 9.2-1.5 13.9-2 4.7-.5 9.3-.7 14-.7 4.7 0 9.4.1 14 .5 4.7.4 9.3 1 13.9 1.8 4.6.7 9.1 1.7 13.7 3z"/><path class="st1" d="M1148.3 227.7v138.5c0 1.4-.1 2.9-.3 4.3-.2 1.4-.5 2.8-.9 4.2-.4 1.4-.9 2.7-1.5 4.1-.6 1.3-1.2 2.6-2 3.8-.8 1.2-1.6 2.4-2.5 3.5s-1.9 2.2-3 3.1c-1.1 1-2.2 1.9-3.4 2.7-1.2.8-2.4 1.6-3.7 2.2L738.6 592.9c-4.4 2.2-9 4.3-13.6 6.1-4.6 1.8-9.3 3.4-14.1 4.8-4.8 1.4-9.6 2.5-14.5 3.4-4.9.9-9.8 1.6-14.8 2-5 .4-9.9.6-14.9.6s-9.9-.3-14.9-.8-9.9-1.3-14.7-2.2-9.7-2.2-14.5-3.6L22.3 421.7c-1.6-.5-3.1-1.1-4.6-1.8-1.5-.7-2.9-1.6-4.3-2.5-1.4-1-2.6-2-3.8-3.2-1.2-1.2-2.3-2.4-3.3-3.8-1-1.3-1.9-2.8-2.6-4.2-.8-1.5-1.4-3-1.9-4.6-.5-1.6-.9-3.2-1.2-4.8-.3-1.6-.4-3.3-.4-5V259.9"/><path class="st0" d="M980.8 401.5c-4.3 0-8.3-.4-8.3-4.8 0-4.3 4-10.9 8.3-10.9 4.3 0 8.4-.5 8.4 3.8 0 4.4-4.1 11.9-8.4 11.9zm-156.5 78.3c-4.3 0-8.3-.4-8.3-4.8 0-4.3 4-10.9 8.3-10.9 4.3 0 8.4-.5 8.4 3.8s-4.1 11.9-8.4 11.9zm-250.4 23.4c-4.3 0-8.3.4-8.3 4.8 0 4.3 4 10.9 8.3 10.9 4.3 0 8.4.5 8.4-3.8s-4.1-11.9-8.4-11.9zm-172.2-46.9c-4.3 0-8.3.4-8.3 4.8 0 4.3 4 10.9 8.3 10.9 4.3 0 8.4.5 8.4-3.8s-4.1-11.9-8.4-11.9zm-156.5-47c-4.3 0-8.3.4-8.3 4.8 0 4.3 4 10.9 8.3 10.9 4.3 0 8.4.5 8.4-3.8s-4.1-11.9-8.4-11.9zM88.7 362.4c-4.3 0-8.3.4-8.3 4.8 0 4.3 4 10.9 8.3 10.9 4.3 0 8.4.5 8.4-3.8s-4.1-11.9-8.4-11.9z"/><path class="st1" d="M188.1 140l56.6 195.6m674.2-198.3l67.5 180.6M773.3 99.6l95.4 276.1M610.4 57.6l128.9 376m-294.2-409l137.7 409.1M325.3 83.1l91.3 297.8"/></svg>