<svg id="Layer_1" xmlns="http://www.w3.org/2000/svg" viewBox="0 0 1179.1 621.1"><style>.st0,.st1{fill:none;stroke:#fff;stroke-width:31.3}.st1{stroke-linecap:round}</style><path class="st0" d="M518.8 24.4l621.9 165.9c1.5.4 3 .9 4.5 1.6 1.5.6 2.9 1.4 4.2 2.2 1.3.9 2.6 1.8 3.8 2.8 1.2 1 2.3 2.2 3.3 3.4 1 1.2 2 2.5 2.8 3.9.8 1.4 1.6 2.8 2.2 4.2.6 1.5 1.1 3 1.5 4.5s.7 3.1.8 4.7c.1 1.6.2 3.2.1 4.8-.1 1.6-.3 3.2-.6 4.7-.3 1.6-.8 3.1-1.3 4.6-.6 1.5-1.2 2.9-2 4.3s-1.7 2.7-2.6 3.9c-1 1.2-2.1 2.4-3.2 3.5-1.2 1.1-2.4 2.1-3.7 3s-2.7 1.7-4.1 2.4L751.8 438.3c-4.2 2-8.6 3.9-13 5.5s-8.9 3.1-13.4 4.3c-4.5 1.2-9.1 2.3-13.8 3.1-4.6.8-9.3 1.5-14 1.9-4.7.4-9.4.6-14.1.6-4.7 0-9.4-.2-14.1-.7-4.7-.4-9.3-1.1-14-1.9-4.6-.9-9.2-1.9-13.7-3.2l-604-169.2c-1.5-.4-3-1-4.4-1.6-1.4-.6-2.8-1.4-4.1-2.3-1.3-.9-2.6-1.8-3.7-2.9-1.2-1-2.3-2.2-3.3-3.4-1-1.2-1.9-2.5-2.7-3.8-.8-1.3-1.5-2.7-2.1-4.2s-1.1-2.9-1.5-4.5c-.4-1.5-.6-3.1-.8-4.6-.1-1.6-.2-3.1-.1-4.7s.3-3.1.6-4.7.8-3 1.3-4.5c.6-1.5 1.2-2.9 2-4.3s1.6-2.7 2.6-3.9c1-1.2 2-2.4 3.2-3.5 1.1-1.1 2.4-2.1 3.7-3 1.3-.9 2.6-1.7 4.1-2.4L409.5 35c4.2-2.1 8.5-3.9 12.9-5.6 4.4-1.7 8.8-3.2 13.3-4.4 4.5-1.3 9.1-2.4 13.7-3.2 4.6-.9 9.2-1.5 13.9-2 4.7-.5 9.3-.7 14-.7 4.7 0 9.4.1 14 .5 4.7.4 9.3 1 13.9 1.8 4.5.8 9.1 1.8 13.6 3z"/><path class="st1" d="M1164.3 226.9v138.5c0 1.4-.1 2.9-.3 4.3-.2 1.4-.5 2.8-.9 4.2-.4 1.4-.9 2.7-1.5 4.1-.6 1.3-1.2 2.6-2 3.8-.8 1.2-1.6 2.4-2.5 3.5s-1.9 2.2-3 3.1c-1.1 1-2.2 1.9-3.4 2.7-1.2.8-2.4 1.6-3.7 2.2L754.5 592.1c-4.4 2.2-9 4.3-13.6 6.1-4.6 1.8-9.3 3.4-14.1 4.8-4.8 1.4-9.6 2.5-14.5 3.4-4.9.9-9.8 1.6-14.8 2-5 .4-9.9.6-14.9.6s-9.9-.3-14.9-.8-9.9-1.3-14.7-2.2-9.7-2.2-14.5-3.6L38.2 420.9c-1.6-.5-3.1-1.1-4.6-1.8-1.5-.7-2.9-1.6-4.3-2.5-1.4-1-2.6-2-3.8-3.2-1.2-1.2-2.3-2.4-3.3-3.8-1-1.3-1.9-2.8-2.6-4.2-.8-1.5-1.4-3-1.9-4.6-.5-1.6-.9-3.2-1.2-4.8-.3-1.6-.4-3.3-.4-5V259.1"/><path class="st1" d="M1097.9 283l41 111.5M773.2 580l18.7-156.5M602.3 590.4l-28.4-159.2M37.1 419.1l48.4-125M456.3 396c85.1 21.8 162.7-59.1 240.3-104.5 77.6-45.5 129 115.4 207.8 74.7"/></svg>