<svg id="Layer_1" xmlns="http://www.w3.org/2000/svg" viewBox="0 0 1231.3 622.8"><style>.st0{fill:#fff}</style><path class="st0" d="M666.8 614.7L76.9 435.4C-42.5 401.5-19 241.6 120.6 220.9c66.8-9.9 102.4-36.3 158.8-103.3l7.6-9C357.7 24.4 405.6-5.2 504.4.7c11.2.7 22.2 2.4 33 5.3l640 163.2c2.5.7 3.9 1.3 5.2 2.1 82.3 41.2 57.1 193.5-49.7 248.4-34.7 17.8-72.5 38.1-132.1 70.4l-5.4 3C868.3 562 843.1 575.6 803.4 595c-9.9 4.9-20.1 9.3-30.4 13.3-43.2 16.6-78.6 19.1-106.2 6.4zm16.7-76c-3.6-57.2 34.2-109.2 101.9-122.4C848.8 403.9 891.7 370 950.8 298c3.4-4.2 25.1-30.9 31.4-38.5 34.2-41.2 64-68.9 95.5-83.5L529.5 36.3c-8.9-2.3-17.9-3.7-27-4.3-86.8-5.2-126.6 19.3-191.6 96.8l-7.6 9c-60.8 72.3-102 102.8-178.1 114.1C17.1 267.9.4 381.1 85.7 405.4l591.2 179.7c8.3 3.9 17 6 26.1 6.3-11.1-13.1-18.2-31.3-19.5-52.7zm322.8-259.1c-6.2 7.4-27.7 34-31.3 38.3C911.6 395 863.8 432.8 791.3 447c-51.8 10.1-79.3 47.9-76.6 89.7 2.3 36.6 25.1 54.4 55.1 38.9 1.3-.7 2.6-1.1 4-1.4 5.1-2.2 10.4-4.6 15.8-7.3 39.1-19.1 64.4-32.7 190.7-101.3l5.4-3c59.8-32.5 97.8-52.8 132.7-70.7 86.4-44.4 106.2-164.3 50-192.6-63-14.6-102.8 8.7-162.1 80.3z"/><path class="st0" d="M52.6 280.6c-1-.3-1.9-.7-2.8-1.2s-1.7-1-2.5-1.7c-.8-.6-1.5-1.4-2.1-2.1-.6-.8-1.2-1.6-1.7-2.5-.5-.9-.9-1.8-1.2-2.8-.3-1-.5-2-.6-3-.1-1-.1-2 0-3s.3-2 .5-3c.3-1 .6-1.9 1.1-2.8.5-.9 1-1.7 1.6-2.5.6-.8 1.3-1.5 2.1-2.2.8-.7 1.6-1.2 2.5-1.7.9-.5 1.8-.9 2.8-1.2 1-.3 1.9-.6 2.9-.7 1-.1 2-.2 3-.1s2 .2 3 .5L729 442c1 .3 1.9.7 2.8 1.1.9.5 1.8 1 2.6 1.7.8.6 1.5 1.4 2.2 2.1.7.8 1.2 1.6 1.7 2.5s.9 1.8 1.2 2.8c.3 1 .5 2 .6 3 .1 1 .1 2 0 3.1-.1 1-.3 2-.6 3s-.7 1.9-1.1 2.9c-.5.9-1 1.8-1.7 2.6-.6.8-1.4 1.5-2.1 2.2-.8.7-1.6 1.2-2.5 1.7-.9.5-1.8.9-2.8 1.2-1 .3-2 .5-3 .6-1 .1-2 .1-3.1 0-1-.1-2-.3-3-.6L52.6 280.6z"/></svg>