<svg height="512pt" viewBox="0 -4 512.00074 512" width="512pt" xmlns="http://www.w3.org/2000/svg"><linearGradient id="a" x1="50%" y1="0%" x2="50%" y2="100%"><stop offset="7%" stop-color="#efdb96"/><stop offset="92%" stop-color="#b06e30"/></linearGradient><path fill="url(#a)" d="M348.488 436.91c-2.636 0-5.207 1.07-7.078 2.93a10.087 10.087 0 0 0-2.93 7.07c0 2.633 1.07 5.211 2.93 7.07a10.105 10.105 0 0 0 7.078 2.93c2.633 0 5.203-1.07 7.07-2.93a10.065 10.065 0 0 0 2.922-7.07c0-2.629-1.062-5.207-2.921-7.07a10.087 10.087 0 0 0-7.07-2.93zm0 0"/><path fill="url(#a)" d="M511.957 204.48a9.996 9.996 0 0 0-5.312-9.77l-93.668-49.1 91.976-28.426a10 10 0 0 0 1.692-18.41L320.402 1.143a9.984 9.984 0 0 0-7.597-.695L7.047 94.945a9.995 9.995 0 0 0-7.004 8.637 10.005 10.005 0 0 0 5.316 9.773l64.305 33.711A347.221 347.221 0 0 0 100.7 161.43L7 190.895a10.002 10.002 0 0 0-6.96 8.648 9.993 9.993 0 0 0 5.32 9.746l93.663 49.102-91.976 28.425a10 10 0 0 0-1.688 18.41l98.496 51.633-96.808 29.918a10 10 0 0 0-1.688 18.41l186.243 97.633a9.994 9.994 0 0 0 7.593.7l114.035-35.243c5.278-1.632 8.23-7.23 6.602-12.507-1.629-5.278-7.234-8.239-12.508-6.602L197.23 483.191l-161.117-84.46 91.973-28.426c.285-.09.562-.192.836-.305l62.68 32.86a9.99 9.99 0 0 0 4.64 1.14c.992 0 1.988-.145 2.953-.445l181.97-56.239c.335.235.687.457 1.062.653l93.664 49.101-92.036 28.446c-5.277 1.629-8.23 7.23-6.601 12.507a10.007 10.007 0 0 0 9.55 7.051c.977 0 1.973-.148 2.958-.449l115.191-35.605a9.984 9.984 0 0 0 7.004-8.637 10.002 10.002 0 0 0-5.312-9.774l-98.497-51.632 96.805-29.918a9.989 9.989 0 0 0 7.004-8.641 9.996 9.996 0 0 0-5.312-9.77l-93.668-49.101 91.976-28.426a10 10 0 0 0 7.004-8.64zm-101.48-37.601l-78.883 78.887-99.735 30.824L340.41 168.04l45.469-14.056zm-258.684-9.816c22.676-4.454 43.43-15.536 59.832-32.07 12.348 17.472 28.973 31.171 48.406 39.976-36.355 3.543-72.87.87-108.238-7.906zm44.82 27.726l-67.035 67.04-41.832-21.93 54.68-54.68a343.672 343.672 0 0 0 54.187 9.57zm26.774 1.512c2.039.039 4.074.07 6.11.07 23.89 0 47.612-2.5 70.983-7.469l-77.105 77.106a9.95 9.95 0 0 0-1.914 2.691l-27.09 27.094-46.238-24.238zM36.109 106.895l278.66-86.122 161.122 84.461-91.961 28.422-.078.024-59.028 18.242a328.588 328.588 0 0 1-22.082 5.984l-20.98-6.14c-25.782-7.543-47.086-24.676-59.992-48.235a9.998 9.998 0 0 0-16.649-1.355c-18.426 23.574-46.156 37.097-76.082 37.097H99.61a329.034 329.034 0 0 1-20.66-9.921zm73.73 72.625l-40.652 40.652-33.226-17.418zm366.052 117.585l-278.66 86.122-161.122-84.461 88.036-27.207 67.453 35.359a10.01 10.01 0 0 0 7.597.7l140.535-43.434.075-.024 46.07-14.238zm-91.985-67.507l-.035.011-11.34 3.504 56.504-56.504 46.856 24.563zm0 0"/></svg>