<svg xmlns="http://www.w3.org/2000/svg" viewBox="0 0 428.85 428.85"><linearGradient id="a" x1="50%" y1="0%" x2="50%" y2="100%"><stop offset="7%" stop-color="#efdb96"/><stop offset="92%" stop-color="#b06e30"/></linearGradient><path fill="url(#a)" d="M109.8 335.483c-2.16-23.56-13-40.8-24-58.48-21.76-34.52-44.8-71.08 7.2-164.72a7.32 7.32 0 0 0-3.04-9.88 7.32 7.32 0 0 0-9.957 2.834l-.003.006c-56.24 101.16-30.8 141.44-6.8 179.56 10.2 16 20 32 22 52 .365 4.032 3.928 7.005 7.96 6.64s7.005-3.928 6.64-7.96zM286.52 112.563a67.23 67.23 0 0 1-9.76 17.84 50.764 50.764 0 0 1-29.84 19.32c-12.72 2.76-28 1.04-45.44-6.84-25.24-11.4-54.64-35.32-86.96-76.48 18.4-1.88 51.08-7.8 75.44-26.32 20.6-15.68 39.2-21.44 54.6-20a45.085 45.085 0 0 1 18.8 5.8 48.963 48.963 0 0 1 14.6 12.96 67.63 67.63 0 0 1 12.24 29.16 116.809 116.809 0 0 1 15.4 4 84.604 84.604 0 0 0-16-42.2 63.624 63.624 0 0 0-19.08-16.84 59.68 59.68 0 0 0-24.92-7.68c-18.8-1.56-40.88 5.04-64.68 23.16-29.84 22.68-74.76 24-80.28 24a7.36 7.36 0 0 0-6.4 11.72c37.44 50.04 71.72 78.6 101.16 92 20.56 9.24 38.92 11.2 54.56 8a65.2 65.2 0 0 0 38.44-24.92 82.032 82.032 0 0 0 11.64-21.4l-1.16-.56a79.496 79.496 0 0 0-12.36-4.72z"/><path fill="url(#a)" d="M392.68 175.883c-59.6-99.32-107.2-97.48-152.2-95.72-19.12.76-37.72 1.48-56-6.96a7.32 7.32 0 0 0-6.16 13.2c21.48 9.88 41.8 9.12 62.68 8.28 40.8-1.44 84-3.12 139.08 88.72a7.337 7.337 0 0 0 12.6-7.52zM161.6 285.803c-2.24-22.4-9.76-39.28-20.52-51.16a65.24 65.24 0 0 0-40.68-20.88 81.881 81.881 0 0 0-24.32.6v1.28a79.137 79.137 0 0 0 2.16 13.2 67.383 67.383 0 0 1 20.28-.56 50.717 50.717 0 0 1 31.64 16c8.72 9.64 14.88 23.72 16.8 42.76 2.76 27.52-3.24 64.92-22.64 113.68-10.84-15.04-32.32-40.4-60.52-52.24-24-10.04-38.2-23.2-44.76-37.16a45.012 45.012 0 0 1-4.52-19 49.077 49.077 0 0 1 4-19.16 67.726 67.726 0 0 1 19.12-25.2 116.91 116.91 0 0 1-4-15.44 84.513 84.513 0 0 0-28.56 34.96A63.53 63.53 0 0 0 0 292.323a59.755 59.755 0 0 0 5.8 25.44c8 17.08 24.84 32.92 52.36 44.48 36.72 15.36 61.12 57.4 61.36 57.84a7.32 7.32 0 0 0 13.12-.8c24.6-57.4 32.2-101.36 28.96-133.48zM369.86 272.183a7.335 7.335 0 0 0-10.22-1.78c-19.32 13.64-28.8 31.68-38.56 50.2-19.04 36-39.16 74.36-146.24 76a7.32 7.32 0 1 0 .24 14.64c115.8-1.92 138-44 159-84 8.88-16.84 17.56-33.32 34-44.84a7.335 7.335 0 0 0 1.78-10.22z"/><path fill="url(#a)" d="M425.137 209.362a7.36 7.36 0 0 0-4.497-.919l.2.2c-62.04 7.36-103.92 22.8-130.32 41.76-18.28 13.16-29.16 28-34.04 43.32a65.202 65.202 0 0 0 2.24 45.64 81.807 81.807 0 0 0 12.72 20.76l1.04-.72a79.31 79.31 0 0 0 10.36-8.48 67.369 67.369 0 0 1-10.6-17.2 50.756 50.756 0 0 1-1.72-35.6c4-12.4 13.08-24.72 28.64-36 22.44-16 57.8-29.64 109.72-37.2-7.56 16.92-18.8 48-14.92 78.48 3.28 25.72-1 44.68-9.84 57.4a45.048 45.048 0 0 1-14.4 13.36 49.024 49.024 0 0 1-18.56 6.16 67.72 67.72 0 0 1-31.4-4 116.38 116.38 0 0 1-11.32 11.24 84.558 84.558 0 0 0 44.52 7.24 63.642 63.642 0 0 0 24-8 59.715 59.715 0 0 0 19.12-17.76c10.76-15.52 16-37.92 12.32-67.56-5.04-39.6 19.4-81.96 19.48-82.08a7.36 7.36 0 0 0-2.743-10.041z"/></svg>